# xmcd CD database file
#
# Track frame offsets:
#	150
#	14366
#	29703
#	42715
#	55544
#	68506
#	83557
#	96650
#	110766
#	125790
#	137431
#	159041
#	178204
#	191071
#	206495
#	222668
#	237793
#	253274
#	268371
#
# Disc length: 3780 seconds
#
# Revision: 0
# Processed by: cddbd v1.5.2PL0 Copyright (c) Steve Scherf et al.
# Submitted via: CDex 1.70beta2
#
DISCID=230ec213
DTITLE=Bunny Berigan - Giants of Jazz (2)
DYEAR=1900
DGENRE=Jazz
TTITLE0=Swing, Mister Charlie: Bunny Berigan and His Boys
TTITLE1=I Can't Get Started: Bunny Berigan and His Boys
TTITLE2=Did I Remember?: Billie Holiday and Her Orchestra 
TTITLE3=One, Two, Button Your Shoe: Billie Holiday and Her Orchestra 
TTITLE4=That Foolish Feeling: Bunny Berigan and His Orchestra
TTITLE5=Mr. Ghost Goes to Town: Tommy Dorsey and His Orchestra 
TTITLE6=Blue Lou: Bunny Berigan and His Orchestra
TTITLE7=Song of India: Tommy Dorsey and His Orchestra
TTITLE8=Marie: Tommy Dorsey and His Orchestra 
TTITLE9=Mahogany Hall Stomp: Bunny Berigan and His Orchestra
TTITLE10=I Can't Get Started: Bunny Berigan and His Orchestra
TTITLE11=The Prisoner's Song: Bunny Berigan and His Orchestra
TTITLE12=Mama, I Wanna Make Rhythm: Bunny Berigan and His Orchestra 
TTITLE13=Black Bottom: Bunny Berigan and His Orchestra
TTITLE14=The Wearin' of the Green: Bunny Berigan and His Orchestra
TTITLE15=I Cried for You: Bunny Berigan and His Orchestra
TTITLE16=Jelly Roll Blues: Bunny Berigan and His Orchestra
TTITLE17=Davenport Blues: Bunny Berigan and His Men
TTITLE18=Blue Lou: All Star Band 
EXTD=
EXTT0=
EXTT1=
EXTT2=
EXTT3=
EXTT4=
EXTT5=
EXTT6=
EXTT7=
EXTT8=
EXTT9=
EXTT10=
EXTT11=
EXTT12=
EXTT13=
EXTT14=
EXTT15=
EXTT16=
EXTT17=
EXTT18=
PLAYORDER=
